<?xml version="1.0" standalone="no"?>
<!DOCTYPE svg PUBLIC "-//W3C//DTD SVG 1.1//EN" "http://www.w3.org/Graphics/SVG/1.1/DTD/svg11.dtd" >
<svg xmlns="http://www.w3.org/2000/svg" xmlns:xlink="http://www.w3.org/1999/xlink" version="1.1">
<metadata></metadata>
<defs>
<font id="public_sansextralight_italic" horiz-adv-x="1351" >
<font-face units-per-em="2048" ascent="1597" descent="-451" />
<missing-glyph horiz-adv-x="505" />
<glyph unicode="&#xfb01;" horiz-adv-x="1290" d="M141 958l17 101h221l24 170q38 252 261 252h163l-12 -99h-156q-63 0 -93.5 -37t-39.5 -114l-24 -172h258l-17 -101h-256l-135 -958h-123l136 958h-224zM895 0l152 1059h122l-149 -1059h-125zM1073 1303l23 157h139l-25 -157h-137z" />
<glyph unicode="&#xfb02;" horiz-adv-x="1327" d="M141 958l17 101h221l24 170q38 252 261 252h163l-12 -99h-156q-63 0 -93.5 -37t-39.5 -114l-24 -172h258l-17 -101h-256l-135 -958h-123l136 958h-224zM915 258l181 1264h123l-181 -1254q-11 -89 14 -132.5t74 -45.5h56l-13 -88q-43 -12 -77 -12q-214 0 -177 268z" />
<glyph horiz-adv-x="55" />
<glyph horiz-adv-x="55" />
<glyph horiz-adv-x="682" />
<glyph unicode="&#xd;" horiz-adv-x="473" />
<glyph unicode=" "  horiz-adv-x="505" />
<glyph unicode="&#x09;" horiz-adv-x="505" />
<glyph unicode="&#xa0;" horiz-adv-x="505" />
<glyph unicode="!" horiz-adv-x="473" d="M76 0l26 195h162l-28 -195h-160zM160 332l131 1149h153l-196 -1149h-88z" />
<glyph unicode="&#x22;" horiz-adv-x="798" d="M268 1055l15 426h178l-111 -426h-82zM586 1055l14 426h178l-110 -426h-82z" />
<glyph unicode="#" horiz-adv-x="1173" d="M92 492v94h256l49 325h-239v95h254l73 477l95 -10l-72 -467h317l74 477l94 -10l-71 -467h219v-95h-234l-49 -325h217v-94h-231l-76 -494l-94 14l74 480h-318l-76 -494l-94 14l74 480h-242zM444 586h318l49 325h-317z" />
<glyph unicode="$" horiz-adv-x="1251" d="M111 358l131 17q15 -137 103.5 -206t234.5 -69q88 0 170.5 32t141.5 94.5t69 142.5q17 106 -31 174t-168 106l-234 76q-151 48 -221.5 133t-52.5 221q25 169 154 284t319 134l31 211h123l-29 -213q163 -20 247.5 -133.5t71.5 -267.5l-124 -13q-9 299 -277 299 q-63 0 -124.5 -18t-115.5 -52t-91.5 -91t-47.5 -129q-12 -89 38 -141t194 -103l221 -76q294 -102 252 -399q-23 -157 -154 -264.5t-321 -124.5l-29 -207h-123l29 207q-178 15 -282 113t-105 263z" />
<glyph unicode="%" horiz-adv-x="1685" d="M195 1079q27 197 130 310.5t240 113.5q138 0 207.5 -113.5t42.5 -310.5q-29 -199 -130 -311.5t-239 -112.5t-208 113t-43 311zM256 -8l1028 1270l262 235l-1024 -1270zM289 1079q-21 -153 24 -248.5t142 -95.5q99 0 170.5 95t91.5 249q23 152 -22 248t-144 96 q-95 0 -166.5 -96t-95.5 -248zM932 406q27 196 130 309.5t241 113.5q136 0 205 -113.5t42 -309.5q-29 -200 -129.5 -313t-238.5 -113t-208.5 113t-41.5 313zM1026 403q-20 -148 26 -245t140 -97q96 0 168.5 97t93.5 245q22 149 -24.5 247t-141.5 98q-94 0 -167 -98t-95 -247 z" />
<glyph unicode="&#x26;" horiz-adv-x="1288" d="M63 373q20 139 112.5 245.5t268.5 198.5q-75 99 -105.5 187.5t-16.5 183.5q19 134 124 224.5t250 90.5t238 -86t72 -225q-4 -30 -15 -60.5t-39 -73.5t-69.5 -84.5t-112 -91.5t-160.5 -96l285 -438q52 54 111.5 167t85.5 259h118q-35 -157 -99 -275t-161 -233l174 -266 h-147l-117 176q-222 -186 -450 -186q-187 0 -279.5 104.5t-67.5 278.5zM197 371q-13 -121 59 -196t193 -75q89 0 183 43.5t175 116.5l-309 473q-128 -69 -207.5 -160.5t-93.5 -201.5zM449 1196q-11 -80 20.5 -161t69.5 -130l24 -37q176 99 245 173t79 151q8 56 -6 98.5 t-45 66t-70 34.5t-84 10q-95 0 -158.5 -60.5t-74.5 -144.5z" />
<glyph unicode="'" horiz-adv-x="483" d="M270 1055l17 426h176l-109 -426h-84z" />
<glyph unicode="(" horiz-adv-x="565" d="M173.5 210q-33.5 211 0.5 458q35 243 141.5 477t259.5 434h84q-133 -211 -227.5 -446.5t-128.5 -466.5q-30 -237 -10 -449t90 -448h-82q-94 230 -127.5 441z" />
<glyph unicode=")" horiz-adv-x="581" d="M-61 -236q133 216 227.5 451t126.5 463q61 434 -80 897h82q95 -232 128.5 -442t-1.5 -457q-34 -241 -141 -476t-261 -436h-81z" />
<glyph unicode="*" horiz-adv-x="716" d="M150 1212l30 91l242 -95l-16 273h110l-14 -273l243 105l29 -90l-246 -82l179 -223l-89 -64l-153 248l-162 -254l-86 57l184 234z" />
<glyph unicode="+" horiz-adv-x="1044" d="M152 688l16 109h342l51 366h103l-52 -364h340l-16 -109h-340l-51 -364h-103l52 362h-342z" />
<glyph unicode="," horiz-adv-x="442" d="M-23 -242l138 240l-74 2l27 193h188l-25 -166l-184 -269h-70z" />
<glyph unicode="-" horiz-adv-x="731" d="M123 473l16 111l465 2l-16 -111z" />
<glyph unicode="." horiz-adv-x="405" d="M45 0l29 197h162l-29 -197h-162z" />
<glyph unicode="/" horiz-adv-x="645" d="M-59 -102l700 1583h107l-701 -1583h-106z" />
<glyph unicode="0" horiz-adv-x="1153" d="M133 733q54 377 208.5 572.5t373.5 195.5t317 -195t45 -569q-53 -372 -205.5 -564.5t-373.5 -192.5t-319.5 191t-45.5 562zM270 737q-89 -637 246 -637q165 0 270.5 153t153.5 484q46 333 -17 489t-227 156q-332 0 -426 -645z" />
<glyph unicode="1" horiz-adv-x="776" d="M195 1217l14 100q125 0 195 17.5t100 51t41 95.5h94l-211 -1481h-129l172 1217h-276z" />
<glyph unicode="2" horiz-adv-x="1144" d="M72 0l14 98l8 52q15 108 68.5 196.5t127 148.5t159 112t171 100.5t157.5 100.5t123 125.5t63 162.5q19 126 -54.5 204t-212.5 78q-146 0 -247.5 -89.5t-129.5 -233.5h-129q16 92 59 172t109.5 141.5t160.5 97t204 35.5q195 0 296 -111t75 -296q-12 -86 -47.5 -158 t-85 -124.5t-110.5 -98t-126.5 -83t-131 -74t-126 -76.5t-109 -84.5t-82 -104.5t-43.5 -131l-6 -37h740l-19 -123h-876z" />
<glyph unicode="3" horiz-adv-x="1171" d="M78 408h127q0 -145 80.5 -227.5t222.5 -82.5q164 0 275.5 83t131.5 218q22 151 -76.5 233.5t-267.5 82.5l-120 2l16 119l117 2q149 0 264.5 85t130.5 201q14 107 -61.5 183.5t-227.5 76.5q-60 0 -119 -20t-111 -58.5t-89 -101.5t-49 -141h-129q19 131 95 232t185.5 153.5 t233.5 52.5q208 0 320 -101t87 -272q-15 -113 -97 -203.5t-220 -140.5q142 -43 209 -142.5t45 -238.5q-28 -194 -185 -310t-383 -113q-199 3 -312.5 120t-92.5 308z" />
<glyph unicode="4" horiz-adv-x="1185" d="M76 406l18 133l785 942h131l-136 -955h238l-18 -120h-238l-57 -406h-125l57 406h-655zM217 526h526l111 766z" />
<glyph unicode="5" horiz-adv-x="1228" d="M90 375l123 31q27 -142 116.5 -226t227.5 -84q162 0 272.5 102t137.5 283q22 165 -63 266t-224 101q-106 0 -185 -33.5t-171 -136.5q-4 -2 -11 0l-114 22l172 781h792l-20 -119h-674l-119 -545q142 148 365 148q89 0 165 -31t131.5 -89.5t80 -151.5t8.5 -208 q-32 -229 -184.5 -367t-370.5 -138q-184 0 -309.5 109t-145.5 286z" />
<glyph unicode="6" horiz-adv-x="1161" d="M135 735q51 361 215 571t414 210q163 0 269 -97.5t110 -265.5h-123q-12 114 -82.5 180t-187.5 66q-203 0 -328.5 -183t-161.5 -542q54 134 169.5 217.5t248.5 83.5q205 0 309 -126.5t72 -348.5q-31 -228 -174 -367t-355 -139q-230 0 -337.5 196.5t-57.5 544.5zM274 535 q-28 -184 48 -304t227 -120q142 0 245.5 105.5t129.5 277.5q22 172 -46 269t-225 97q-85 0 -167.5 -42.5t-141 -118.5t-70.5 -164z" />
<glyph unicode="7" horiz-adv-x="1124" d="M211 1362l18 119h936l-18 -119q-225 -285 -451 -706t-295 -656h-135q51 158 146 368t255 485.5t337 508.5h-793z" />
<glyph unicode="8" horiz-adv-x="1241" d="M94 414q19 127 122.5 239.5t217.5 134.5q-211 95 -180 324q27 184 168.5 289.5t337.5 105.5t307 -105.5t84 -289.5q-34 -230 -270 -324q108 -22 179.5 -134.5t53.5 -239.5q-26 -189 -182 -303.5t-389 -114.5q-230 0 -353.5 114.5t-95.5 303.5zM229 410 q-19 -136 72 -218.5t260 -82.5t283.5 82.5t134.5 218.5q19 138 -72 225.5t-260 87.5q-167 0 -282.5 -87.5t-135.5 -225.5zM387 1116q-20 -128 57.5 -197t221.5 -69q146 0 241 68.5t115 197.5q19 129 -58.5 206t-220.5 77q-142 0 -239.5 -77.5t-116.5 -205.5z" />
<glyph unicode="9" horiz-adv-x="1163" d="M84 354h117q12 -112 85.5 -178.5t190.5 -66.5q205 0 335 181.5t167 549.5q-51 -138 -166 -224t-252 -86q-201 0 -305 128t-72 352q33 229 171 366t347 137q227 0 333 -196t57 -545q-52 -364 -215 -571t-412 -207q-162 0 -269.5 97t-111.5 263zM317 1016q-24 -171 42 -269 t223 -98q128 0 242 95.5t134 228.5q28 185 -47.5 305.5t-226.5 120.5q-140 0 -242 -106t-125 -277z" />
<glyph unicode=":" horiz-adv-x="405" d="M45 6l27 195h164l-29 -195h-162zM160 811l28 197h162l-28 -197h-162z" />
<glyph unicode=";" horiz-adv-x="438" d="M4 -279l139 279h-65l26 195h162l-22 -172l-183 -302h-57zM184 809l29 197h162l-27 -197h-164z" />
<glyph unicode="&#x3c;" horiz-adv-x="1030" d="M147 645l19 131l815 330l-18 -137l-646 -258l570 -258l-19 -129z" />
<glyph unicode="=" horiz-adv-x="1044" d="M119 442l14 107l785 2l-15 -109h-784zM182 889l15 108h784l-16 -106z" />
<glyph unicode="&#x3e;" horiz-adv-x="1030" d="M102 324l21 129l641 258l-571 258l20 137l721 -330l-19 -131z" />
<glyph unicode="?" horiz-adv-x="1011" d="M158 1227q78 127 206 200.5t271 73.5q185 0 282 -98.5t74 -259.5q-10 -72 -40.5 -137t-72 -115.5t-89.5 -99.5t-96.5 -98.5t-90 -100.5t-72.5 -117t-41 -139h-112q11 80 41.5 152t70.5 127t86.5 106t92.5 99t85 95t67.5 104.5t37.5 119.5q17 116 -48.5 184t-191.5 68 q-101 0 -203.5 -61t-146.5 -146zM305 0l29 195h160l-27 -195h-162z" />
<glyph unicode="@" horiz-adv-x="1570" d="M92.5 322.5q-10.5 95.5 5.5 197.5q23 161 98.5 307t187 255t260.5 173t312 64q97 0 186 -23t166.5 -74t130.5 -124t75 -181t4 -237q-32 -228 -155.5 -373t-277.5 -145q-71 0 -106 25.5t-41 84.5q-1 13 -5 13t-15 -11q-120 -141 -283 -141q-105 0 -167 98.5t-38 253.5 q27 194 146.5 328.5t273.5 134.5q74 0 125.5 -35.5t75.5 -97.5q0 -7 6 -3q4 2 6 9l29 76h96l-135 -463q-26 -94 -13 -131t66 -37q101 0 187 111t112 291q16 114 -2.5 208t-62.5 156.5t-109 105t-138 61t-153 18.5q-193 0 -352.5 -96.5t-255.5 -254t-123 -348.5 q-12 -106 -2.5 -201t51.5 -175.5t107 -139.5t163.5 -92t221.5 -33q61 0 111 9t99 32t75.5 39t82.5 53l47 -82q-213 -153 -454 -153q-111 0 -206 26.5t-166 75.5t-125 117t-82.5 150.5t-39 178zM549 492q-17 -116 15.5 -183t107.5 -67q93 0 179.5 87t119.5 208q40 143 -3 223 t-126 80q-108 0 -190 -100t-103 -248z" />
<glyph unicode="A" d="M25 0l712 1481h152l291 -1481h-131l-84 438h-600l-213 -438h-127zM418 565h526l-149 785z" />
<glyph unicode="B" horiz-adv-x="1277" d="M131 0l211 1481h414q242 0 356 -99q93 -81 93 -220q0 -32 -5 -66q-18 -126 -91.5 -210t-221.5 -132q149 -32 209 -124q45 -69 45 -164q0 -33 -6 -69q-29 -198 -176.5 -297.5t-403.5 -99.5h-424zM272 117h295q201 0 312 66.5t131 209.5q4 27 4 51q0 48 -14 86 q-21 58 -69.5 92.5t-113 51t-145.5 16.5h-320zM369 809h319q51 0 98.5 7t97.5 26t88 48t66.5 77.5t36.5 111.5q4 27 4 51q1 105 -73 163q-90 71 -267 71h-290z" />
<glyph unicode="C" horiz-adv-x="1329" d="M164 739q51 359 226 560.5t441 201.5q211 0 333 -123q117 -117 116 -286v-17l-135 -12q-6 144 -89.5 230.5t-240.5 86.5q-208 0 -338 -162.5t-174 -480.5q-16 -108 -15 -198q0 -171 56 -277q86 -162 303 -162q134 0 241.5 81t158.5 222l129 -18q-42 -172 -197 -288.5 t-350 -116.5q-274 0 -395 200q-85 141 -85 360q0 93 15 199z" />
<glyph unicode="D" horiz-adv-x="1323" d="M131 0l211 1481q1 0 46 -0.5t110 -0.5t116 -1q376 -3 522 -182q107 -131 107 -363q0 -84 -14 -182q-54 -383 -262 -567.5t-586 -184.5h-250zM276 121h119q152 0 268 33.5t206.5 106.5t147.5 193.5t81 290.5q13 81 13 149q0 17 -1 34q-4 82 -18.5 146t-48 112.5t-76.5 82 t-103.5 54t-129 30t-152.5 9.5h-129z" />
<glyph unicode="E" horiz-adv-x="1200" d="M131 0l211 1481h829l-18 -121h-704l-80 -551h647l-17 -121h-647l-80 -563l729 -2l-18 -123h-852z" />
<glyph unicode="F" horiz-adv-x="1112" d="M131 0l209 1481h817l-16 -121h-688l-78 -553h629l-17 -119h-629l-98 -688h-129z" />
<glyph unicode="G" horiz-adv-x="1404" d="M164 735q50 361 233 563.5t447 202.5q124 0 227.5 -58t159.5 -155q50 -86 50 -184q0 -13 -1 -25l-141 -14q-3 134 -90 223.5t-224 89.5q-206 0 -346 -165t-182 -465q-14 -102 -14 -188q0 -182 63 -294q93 -166 301 -166q76 0 144 25.5t118 67.5t89.5 95.5t62.5 108 t31 107.5l24 153h-360l14 103l490 -2l-109 -758h-102l34 244q-174 -264 -460 -264q-266 0 -388 200q-86 142 -86 360q0 91 15 195z" />
<glyph unicode="H" horiz-adv-x="1355" d="M131 0l211 1481h123l-92 -652h704l92 652h125l-213 -1481h-123l101 709h-705l-100 -709h-123z" />
<glyph unicode="I" horiz-adv-x="526" d="M131 0l209 1481h123l-209 -1481h-123z" />
<glyph unicode="J" horiz-adv-x="731" d="M-18 33l32 131q8 -4 30 -16t37.5 -19t43.5 -13.5t59 -6.5q92 0 135 55t62 192l160 1125h125l-166 -1166q-25 -168 -95 -251.5t-215 -83.5q-68 0 -128 19t-80 34z" />
<glyph unicode="K" horiz-adv-x="1277" d="M131 0l211 1481h127l-113 -813l793 813h154l-562 -582l387 -899h-147l-350 801l-301 -312l-70 -489h-129z" />
<glyph unicode="L" horiz-adv-x="1081" d="M131 0l211 1481h129l-192 -1356h677l-18 -125h-807z" />
<glyph unicode="M" horiz-adv-x="1665" d="M131 0l209 1481h162l280 -1315l662 1315h160l-209 -1481h-131l174 1233l-611 -1233h-135l-258 1219l-174 -1219h-129z" />
<glyph unicode="N" horiz-adv-x="1423" d="M131 0l211 1481h113l606 -1243l176 1243h125l-213 -1481h-109l-608 1249l-178 -1249h-123z" />
<glyph unicode="O" horiz-adv-x="1427" d="M164 733q52 368 235 568t455 200q269 0 393 -199q87 -140 87 -363q0 -94 -15 -202q-52 -362 -232.5 -559.5t-449.5 -197.5q-273 0 -399 196q-89 139 -89 360q0 91 15 197zM303 737q-15 -106 -15 -194q0 -179 61 -285q91 -158 306 -158q439 0 529 637q15 108 15 198 q1 179 -59 285q-90 160 -304 160t-351 -161t-182 -482z" />
<glyph unicode="P" horiz-adv-x="1226" d="M131 0l209 1481h444q228 1 350 -119q98 -95 97 -255q0 -40 -6 -85q-32 -218 -183 -340.5t-370 -122.5h-332l-80 -559h-129zM356 680h330q164 0 277 93.5t137 256.5q4 31 4 60q0 120 -71 188q-88 84 -261 84h-319z" />
<glyph unicode="Q" horiz-adv-x="1390" d="M133 737q52 368 234 566t454 198q270 0 395 -198q89 -140 89 -365q0 -93 -15 -201q-36 -250 -129 -418.5t-258 -261.5q52 -177 250 -184l-18 -119q-37 0 -73.5 5.5t-80 22t-80 43t-71.5 71.5t-58 104q-105 -20 -168 -20q-270 0 -397 194q-90 138 -90 361q0 94 16 202z M270 733q-15 -106 -15 -193q0 -178 61 -283q91 -157 305 -157q216 0 351.5 157.5t180.5 479.5q16 108 16 197q0 176 -60 284q-90 162 -306 162q-215 0 -351.5 -163.5t-181.5 -483.5z" />
<glyph unicode="R" horiz-adv-x="1298" d="M131 0l211 1481h508q212 0 310 -99q78 -78 78 -210q0 -35 -5 -74q-13 -88 -47.5 -159t-84.5 -117t-100.5 -75t-107.5 -47l180 -700h-135l-170 674h-418l-96 -674h-123zM367 791h325q368 0 410 292q4 31 4 59q0 224 -281 224h-376z" />
<glyph unicode="S" horiz-adv-x="1325" d="M111 358l133 17q7 -135 108 -208t252 -73q165 0 281 76.5t135 198.5q4 26 4 50q0 183 -211 240l-283 76q-154 39 -224 123q-56 67 -56 167q0 26 4 54q17 121 91.5 216.5t192 149.5t257.5 54q115 0 202.5 -33t138.5 -90.5t75 -129.5q21 -61 21 -129q0 -11 -1 -23l-129 -13 q-1 80 -26.5 139.5t-71 93.5t-102.5 50t-126 16q-63 0 -125 -18t-117.5 -52t-94 -91t-48.5 -129q-2 -18 -3 -34q0 -69 42 -114q50 -56 193 -96l270 -76q69 -18 120.5 -49.5t80.5 -70.5t46 -85q16 -47 16 -95q0 -4 1 -7q0 -45 -6 -92q-23 -168 -174 -279.5t-391 -111.5 q-130 0 -236 42.5t-172 130t-67 205.5z" />
<glyph unicode="T" horiz-adv-x="1073" d="M147 1358l17 123h1012l-17 -123h-428l-192 -1358h-125l192 1358h-459z" />
<glyph unicode="U" horiz-adv-x="1363" d="M201 508l137 973h131l-143 -1004q-7 -48 -7 -91q-1 -121 55 -192q74 -96 247 -96q175 0 279 95t130 284l141 1004h125l-141 -998q-36 -251 -171 -377t-380 -126q-250 0 -346 130q-69 93 -68 256q0 65 11 142z" />
<glyph unicode="V" horiz-adv-x="1198" d="M162 1481h127l248 -1338l639 1338h124l-704 -1481h-160z" />
<glyph unicode="W" horiz-adv-x="1820" d="M190 1481h129l148 -1288l520 1288h107l155 -1288l520 1288h127l-610 -1481h-131l-149 1245l-506 -1245h-129z" />
<glyph unicode="X" horiz-adv-x="1218" d="M-16 0l579 758l-350 723h160l286 -607l463 607h144l-549 -715l370 -766h-157l-309 647l-492 -647h-145z" />
<glyph unicode="Y" horiz-adv-x="1087" d="M152 1481h137l289 -725l487 725h137l-581 -848l-91 -633h-122l88 635z" />
<glyph unicode="Z" horiz-adv-x="1175" d="M35 0l14 82l965 1280h-760l16 119h932l-12 -80l-971 -1282h787l-19 -119h-952z" />
<glyph unicode="[" horiz-adv-x="565" d="M82 -330l256 1811h311l-12 -97h-197l-231 -1617h197l-15 -97h-309z" />
<glyph unicode="\" horiz-adv-x="638" d="M160 1481h108l250 -1583h-108z" />
<glyph unicode="]" horiz-adv-x="600" d="M-74 -330l15 97h196l232 1617h-197l14 97h310l-256 -1811h-314z" />
<glyph unicode="^" horiz-adv-x="905" d="M68 272l381 734q34 70 77 72t62 -72l174 -738h-115l-143 641l-326 -637h-110z" />
<glyph unicode="_" horiz-adv-x="972" d="M25 -221l18 110l709 2l-17 -110z" />
<glyph unicode="`" horiz-adv-x="530" d="M137 1382l51 117l430 -194l-36 -78z" />
<glyph unicode="a" horiz-adv-x="1050" d="M68 279q25 177 147.5 260t372.5 92l203 6l14 94q4 25 4 47q0 81 -48 131q-61 64 -177 64q-101 0 -180 -53.5t-109 -151.5h-119q28 131 143 221t285 90q173 0 259 -92q68 -73 68 -188q0 -31 -5 -64l-105 -735h-108l20 199q-137 -219 -387 -219q-146 0 -222 80 q-60 63 -60 163q0 27 4 56zM193 289q-3 -18 -2 -35q-1 -70 43 -116q54 -56 159 -56q112 0 227 82.5t130 179.5l26 197l-168 -4q-205 -4 -300.5 -61.5t-114.5 -186.5z" />
<glyph unicode="b" horiz-adv-x="1140" d="M106 0l216 1522h124l-92 -656q131 213 361 213q101 0 173 -42.5t108 -116.5t48 -174q5 -40 6 -82q0 -64 -12 -132q-37 -260 -162.5 -406t-324.5 -146q-57 0 -104.5 12t-78.5 34t-54 45t-36.5 51.5t-20 46.5t-11.5 38l-41 -207h-99zM287 391q-3 -22 -3 -43q0 -96 60 -171 q73 -91 205 -91q139 0 233.5 111.5t124.5 337.5q11 70 11 130q0 115 -40 191q-60 114 -208 115q-54 0 -101 -13.5t-79.5 -33.5t-60 -50.5t-44 -56t-31 -58.5t-19.5 -50.5l-11 -38.5z" />
<glyph unicode="c" horiz-adv-x="1030" d="M102 524q36 247 178 401t343 154q144 0 238 -85t97 -240l-116 -4q-12 109 -73 163t-155 54q-150 0 -255 -120t-134 -319q-8 -57 -8 -108q1 -128 51 -214q70 -120 221 -120q97 0 176 57t115 160h113q-25 -82 -70 -145t-102.5 -101.5t-122 -57.5t-133.5 -19 q-201 0 -299 150q-73 111 -73 274q0 57 9 120z" />
<glyph unicode="d" horiz-adv-x="1132" d="M102 532q17 117 55.5 214.5t97.5 173t142.5 117.5t184.5 42q59 0 110 -15t83 -36.5t57 -49.5t37 -49.5t18 -41.5l90 635h125l-217 -1522h-101l19 217q-12 -26 -26 -50t-46 -60t-70 -62t-98.5 -45.5t-130.5 -19.5q-198 0 -282 146q-59 103 -59 261q0 67 11 145zM231 535 q-11 -77 -11 -140q0 -123 42 -197q64 -112 201 -112q134 0 233 89t119 210l41 291q1 25 -2.5 55.5t-18.5 75t-41.5 79t-78 60t-121.5 25.5q-148 0 -241.5 -114.5t-121.5 -321.5z" />
<glyph unicode="e" horiz-adv-x="1054" d="M100 520q37 259 174 409t342 150q197 0 286 -137q64 -98 64 -252q0 -60 -10 -129l-8 -63h-725q-7 -50 -7 -96q0 -58 12 -109q20 -90 86.5 -146.5t172.5 -56.5q104 0 182 52.5t122 152.5h118q-57 -157 -174.5 -236t-263.5 -79q-203 0 -305 144q-76 107 -75 272q0 58 9 124 zM242 600h600q7 47 7 89q1 55 -11 101q-20 82 -80.5 131.5t-157.5 49.5q-77 0 -142 -32.5t-108.5 -86t-71 -118t-36.5 -134.5z" />
<glyph unicode="f" horiz-adv-x="772" d="M141 958l17 101h221l24 170q38 252 261 252h163l-12 -99h-156q-63 0 -93.5 -37t-39.5 -114l-24 -172h258l-17 -101h-256l-135 -958h-123l136 958h-224z" />
<glyph unicode="g" horiz-adv-x="1177" d="M4 -61q6 44 27.5 82.5t51.5 65.5t55.5 45t53 33.5t31.5 18.5q-4 3 -13 9.5t-14 10t-13.5 11t-12 12.5t-10.5 14.5t-7.5 17.5t-3.5 21t1 25q6 47 53 86t127 60q-87 53 -118 121q-21 47 -21 108q0 28 4 59q22 157 144.5 246.5t311.5 89.5q91 0 154.5 -23.5t114.5 -72.5 q19 7 123 51.5t124 52.5l-22 -145l-178 -37q18 -62 18 -115q0 -24 -4 -47q-20 -142 -132.5 -234.5t-305.5 -92.5q-6 0 -20 1t-19 1q-116 -3 -171.5 -27.5t-58.5 -58.5q-4 -32 35.5 -46t149.5 -22l219 -14q153 -10 217 -82q49 -56 49 -143q0 -25 -4 -54 q-20 -150 -153.5 -233.5t-354.5 -83.5q-225 0 -336 77q-95 66 -95 174q0 18 3 38zM131 -47q-2 -13 -2 -25q0 -83 76 -129q87 -53 264 -53q314 0 348 209q2 14 2 27q0 59 -33 94q-40 44 -143 51l-299 20h-6q-54 0 -123 -55q-73 -58 -84 -139zM317 739q-3 -22 -3 -41 q0 -82 50 -130q63 -58 195 -58q270 0 301 229q4 26 4 49q0 83 -50 131q-63 62 -187 62q-130 0 -211.5 -64t-98.5 -178z" />
<glyph unicode="h" horiz-adv-x="1138" d="M106 0l218 1522h118l-88 -617q53 76 143 123t205 47q147 0 233 -85q70 -69 70 -170q0 -23 -4 -48l-110 -772h-123l104 739q3 22 3 42q1 77 -45 123q-58 60 -171 59q-81 0 -148.5 -25t-116.5 -80t-60 -133l-103 -725h-125z" />
<glyph unicode="i" horiz-adv-x="518" d="M123 0l151 1059h123l-149 -1059h-125zM301 1303l23 157h139l-25 -157h-137z" />
<glyph unicode="j" horiz-adv-x="491" d="M-174 -319l14 86l109 4q71 3 105 39t46 120l160 1129h125l-164 -1137q-19 -139 -80 -200.5t-196 -61.5q-48 0 -78 5t-35 11zM289 1303l22 157h138l-23 -157h-137z" />
<glyph unicode="k" horiz-adv-x="1085" d="M106 0l218 1522h122l-147 -1043l598 580h154l-412 -393l289 -666h-140l-247 571l-265 -252l-45 -319h-125z" />
<glyph unicode="l" horiz-adv-x="555" d="M143 258l181 1264h122l-180 -1254q-3 -27 -3 -50q0 -52 17 -82q25 -44 74 -46h56l-13 -88q-43 -12 -78 -12q-181 0 -181 195q0 33 5 73z" />
<glyph unicode="m" horiz-adv-x="1669" d="M106 0l150 1059h119l-23 -154q117 174 316 174q90 0 166 -45t98 -127q59 82 143.5 127t181.5 45q32 0 60.5 -4.5t60 -15.5t56 -30t47.5 -48t34 -69t15 -94q1 -16 2 -33q0 -41 -8 -89l-101 -696h-123l99 688q6 42 6 77q0 204 -191 204q-46 0 -89.5 -12t-85.5 -39 t-71.5 -77.5t-39.5 -119.5l-103 -721h-123l107 760q3 18 3 35q0 73 -50 118q-60 56 -144 56q-44 0 -88.5 -14t-86 -41t-71 -74.5t-38.5 -108.5l-105 -731h-123z" />
<glyph unicode="n" horiz-adv-x="1134" d="M106 0l150 1059h119l-21 -154q53 77 142 124.5t202 47.5q152 0 235 -100q63 -75 62 -200q0 -41 -6 -87l-98 -690h-125l98 682q5 35 5 66q0 88 -41 142q-56 74 -169 73q-126 0 -218.5 -61.5t-106.5 -176.5l-105 -725h-123z" />
<glyph unicode="o" horiz-adv-x="1081" d="M102 522q37 250 177 403.5t344 153.5q202 -1 296 -153q69 -112 69 -275q0 -59 -9 -125q-34 -247 -172 -396.5t-344 -149.5q-207 0 -301 148q-69 109 -69 271q0 58 9 123zM229 528q-8 -59 -8 -112q1 -124 45 -208q64 -120 217 -120t247.5 119.5t123.5 320.5q9 64 9 119 q-1 120 -43 202q-62 120 -214 120q-153 0 -250.5 -120.5t-126.5 -320.5z" />
<glyph unicode="p" horiz-adv-x="1140" d="M59 -330l197 1389h121l-21 -152q23 26 35 38t49 42.5t69 46.5t83 30.5t104 14.5q89 0 159 -33t118.5 -99.5t65.5 -166.5q8 -49 8 -105q0 -60 -9 -128q-38 -261 -181 -414t-343 -153q-170 0 -264 163l-66 -473h-125zM266 246q98 -160 250 -160q148 0 258 121.5t139 331.5 q8 58 8 109q0 45 -7 83q-13 81 -51.5 134.5t-92 79.5t-117.5 26q-119 0 -214.5 -84.5t-108.5 -177.5z" />
<glyph unicode="q" horiz-adv-x="1130" d="M104 547q37 257 174 394.5t320 137.5q34 0 65.5 -6t54.5 -13.5t46.5 -22t37.5 -25t31.5 -29t24 -26t19.5 -25.5t14 -19l22 146h121l-198 -1389h-123l71 512q-51 -97 -134.5 -149.5t-188.5 -52.5q-198 0 -296 153q-71 111 -71 279q0 63 10 135zM231 541q-8 -58 -8 -110 q0 -134 55 -223q75 -124 222 -124q89 0 160 50t108 119.5t47 145.5l43 299q2 17 2 34q0 84 -57 155q-69 86 -189 86q-137 0 -244.5 -110.5t-138.5 -321.5z" />
<glyph unicode="r" horiz-adv-x="722" d="M106 0l152 1059h117l-27 -178q53 87 159.5 142.5t240.5 55.5l-21 -127h-20q-165 0 -259 -63q-100 -67 -116 -187l-101 -702h-125z" />
<glyph unicode="s" horiz-adv-x="980" d="M72 295h123q4 -102 69 -153.5t172 -51.5q111 0 185.5 50t87.5 139q1 11 1 22q0 106 -128 145l-197 62q-117 36 -171 98q-43 49 -43 126q0 20 3 42q21 147 131 226t270 79q150 1 232 -77q69 -66 69 -173q0 -20 -2 -41h-118v6q0 79 -51 126q-53 49 -148 49q-41 0 -81 -9 t-79.5 -29.5t-67 -60t-34.5 -92.5q-2 -12 -2 -24q0 -45 29 -73q36 -35 120 -60l209 -64q73 -21 116 -67t55 -96q7 -30 6 -62q0 -23 -3 -47q-21 -145 -135 -225t-268 -80q-161 0 -257 82q-93 80 -93 224v9z" />
<glyph unicode="t" horiz-adv-x="677" d="M117 958l16 101h162l67 303h101l-43 -303h225l-14 -101h-225l-101 -700q-4 -30 -4 -54q-1 -27 5 -45q10 -33 36.5 -43t81.5 -10h94l-14 -96q-41 -12 -133 -12q-130 0 -171 58q-28 40 -28 114q0 34 6 76l101 712h-162z" />
<glyph unicode="u" horiz-adv-x="1128" d="M145 350l103 713h125l-103 -705q-4 -27 -4 -52q0 -42 11 -76q17 -54 54 -83.5t79 -43t88 -13.5q112 0 202 73.5t109 209.5l100 690h123l-151 -1061h-103l15 199q-39 -103 -131 -162q-88 -57 -190 -57h-7q-66 1 -125 20.5t-109.5 60.5t-74.5 115q-16 48 -16 106q0 32 5 66 z" />
<glyph unicode="v" horiz-adv-x="960" d="M135 1059h123l156 -901h20l420 901h119l-500 -1059h-139z" />
<glyph unicode="w" horiz-adv-x="1497" d="M145 1059h121l117 -899h18l373 899h98l129 -897h21l360 897h119l-436 -1059h-147l-125 858l-351 -858h-151z" />
<glyph unicode="x" horiz-adv-x="1067" d="M6 0l457 549l-279 510h142l225 -412l342 412h141l-424 -510l303 -549h-141l-250 453l-375 -453h-141z" />
<glyph unicode="y" horiz-adv-x="1007" d="M-20 -317l12 86h102h15q80 0 125 31q49 33 79 91l60 123l-238 1045h129l193 -887l440 887h121l-590 -1180q-62 -118 -139 -167.5t-178 -49.5q-46 0 -79 5t-42 11z" />
<glyph unicode="z" horiz-adv-x="964" d="M29 0l14 94l719 869h-555l14 96h701l-15 -98l-714 -863h604l-15 -98h-753z" />
<glyph unicode="{" horiz-adv-x="575" d="M12 530l17 95q104 1 166.5 60.5t76.5 154.5l66 448q12 88 79 140.5t171 52.5h71l-12 -97h-61q-66 0 -95.5 -24.5t-37.5 -79.5l-64 -451q-18 -112 -78 -173.5t-139 -69.5q-7 -1 -10.5 -4t-1.5 -6.5t10 -4.5q78 -7 120.5 -65t26.5 -174l-63 -457q-8 -59 14 -83.5t90 -24.5 h58l-13 -97h-71q-109 0 -160 54t-39 145l68 457q10 80 -38.5 142t-150.5 62z" />
<glyph unicode="|" horiz-adv-x="505" d="M84 -330l287 2022h104l-289 -2022h-102z" />
<glyph unicode="}" horiz-adv-x="587" d="M-76 -330l15 97h59q67 0 96 24t37 80l66 451q16 112 76 173.5t139 69.5q7 1 10.5 4t1.5 6.5t-10 4.5q-77 7 -120.5 65t-27.5 174l64 457q9 58 -13 83t-90 25h-59l14 97h72q108 0 158.5 -54.5t38.5 -144.5l-68 -457q-10 -80 38.5 -142t149.5 -62l-14 -95 q-106 -1 -169 -60.5t-77 -154.5l-63 -448q-12 -87 -79.5 -140t-172.5 -53h-72z" />
<glyph unicode="~" horiz-adv-x="1056" d="M150 731q43 37 72 58t78 40t101 19q46 0 92.5 -15.5t79.5 -33.5t78.5 -33.5t89.5 -15.5q65 0 111.5 26.5t87.5 71.5l25 -88q-36 -46 -98 -77.5t-142 -31.5q-50 0 -97 15t-77.5 33.5t-74 33.5t-87.5 15q-110 0 -215 -101z" />
<glyph unicode="&#xa1;" horiz-adv-x="475" d="M47 -330l172 1055h88l-106 -1055h-154zM201 864l26 195h160l-27 -195h-159z" />
<glyph unicode="&#xa2;" horiz-adv-x="1044" d="M141 752q31 217 147.5 364.5t286.5 181.5l7 183h102l-6 -174q143 -3 235 -88t95 -238l-119 -4q-12 110 -73.5 163.5t-158.5 53.5q-151 0 -256.5 -119t-136.5 -319q-28 -203 43 -323t223 -120q99 0 179 57t116 160h117q-37 -118 -112 -193.5t-175 -107.5l-6 -229h-102 l8 209q-16 -2 -47 -2q-204 0 -303.5 150t-63.5 395z" />
<glyph unicode="&#xa3;" horiz-adv-x="1144" d="M-49 0l16 117h76q77 0 138 80.5t85 236.5q15 111 15 277h-193l14 96h179l-11 160q-9 120 25 222t98 169.5t147.5 105t174.5 37.5q124 0 215 -62.5t114 -152.5l-116 -49q-26 73 -76 108t-141 35q-113 0 -197 -68.5t-102 -189.5q-19 -163 8 -313h321l-14 -96h-309 q3 -134 -15 -246q-37 -229 -161 -348h370q103 0 171 38.5t114 129.5l102 -37q-122 -250 -399 -250h-649z" />
<glyph unicode="&#xa4;" horiz-adv-x="1009" d="M104 414l123 112q-50 99 -32 219q15 114 86 201q10 15 2 27l-82 104l80 74l90 -117q95 70 211 70q107 0 178 -62q14 -8 24 2l119 109l55 -76l-127 -119q53 -98 35 -213q-16 -118 -86 -200q-8 -17 -2 -25l88 -104l-80 -76l-92 117q-109 -74 -213 -74q-105 0 -182 61 q-13 13 -25 -2l-114 -106zM303 745q-14 -102 42.5 -175.5t154.5 -73.5q97 0 173.5 74t90.5 175q15 100 -41 175t-154 75q-97 0 -174.5 -75t-91.5 -175z" />
<glyph unicode="&#xa5;" horiz-adv-x="1124" d="M154 1481h161l289 -723l496 723h135l-561 -799h278l-12 -94h-297l-27 -195h295l-14 -96h-295l-41 -297h-141l41 295h-295l14 96h295l27 195h-295l14 96h260z" />
<glyph unicode="&#xa6;" horiz-adv-x="505" d="M84 -330l115 813h104l-117 -813h-102zM256 879l115 813h104l-117 -813h-102z" />
<glyph unicode="&#xa7;" horiz-adv-x="927" d="M25 96l94 51q37 -83 111 -133.5t176 -50.5t172.5 44t80.5 122q8 62 -29 111.5t-143 99.5l-161 72q-114 50 -159.5 119.5t-33.5 164.5q13 91 77.5 160t158.5 105q-101 62 -133.5 126t-22.5 144q19 117 124.5 193.5t258.5 76.5q115 0 199.5 -57.5t124.5 -143.5l-97 -53 q-87 152 -233 152q-108 0 -175.5 -43.5t-78.5 -116.5q-14 -112 143 -186l154 -72q131 -61 183 -140t38 -182q-12 -95 -69 -156t-146 -104q82 -54 118.5 -117t26.5 -145q-19 -122 -128.5 -200t-268.5 -78q-127 0 -227 65.5t-135 171.5zM252 711q-8 -63 22 -105.5t127 -87.5 l115 -57q76 -6 142 48.5t75 131.5q8 75 -20 124.5t-121 92.5l-105 47q-86 -7 -155 -65t-80 -129z" />
<glyph unicode="&#xa8;" horiz-adv-x="419" d="M111 1303l20 157h139l-22 -157h-137zM391 1303l23 157h137l-23 -157h-137z" />
<glyph unicode="&#xa9;" horiz-adv-x="1552" d="M96 741q22 154 98 294.5t185.5 242.5t249.5 162.5t284 60.5q192 0 340.5 -102t218.5 -277t41 -381q-29 -208 -149.5 -383.5t-297.5 -276.5t-368 -101q-145 0 -267.5 59.5t-203 161.5t-117 243t-14.5 297zM201 741q-21 -146 9.5 -270t100.5 -207.5t174 -130.5t228 -47 q121 0 237.5 47t211 130.5t161 207.5t86.5 270q21 144 -10 268t-101.5 208t-173.5 132t-225 48q-167 0 -315.5 -81t-251.5 -232t-131 -343zM453 745q26 190 143.5 310.5t275.5 120.5q187 0 277 -207l-105 -39q-61 149 -180 149q-110 0 -191.5 -90.5t-103.5 -238.5 q-21 -152 36 -244t167 -92q72 0 136 43.5t110 117.5l74 -38q-63 -98 -151.5 -159t-190.5 -61q-159 0 -242 118.5t-55 309.5z" />
<glyph unicode="&#xaa;" horiz-adv-x="782" d="M168 993q27 194 330 219l123 13l6 49q17 141 -133 141q-58 0 -101 -22t-86 -80l-76 28q93 154 279 154q116 0 167.5 -59t37.5 -166q-8 -53 -18.5 -131t-14.5 -101q-6 -36 -10 -135l-2 -82h-92l-5 97q-58 -57 -110.5 -83t-114.5 -26q-97 0 -144.5 49t-35.5 135zM264 997 q-6 -51 26.5 -80.5t94.5 -29.5q80 0 143 57q61 51 66 94l14 115l-100 -8q-225 -18 -244 -148z" />
<glyph unicode="&#xab;" horiz-adv-x="833" d="M70 514l315 381h78l-266 -381l157 -364h-75zM393 514l316 381h77l-266 -381l158 -364h-76z" />
<glyph unicode="&#xac;" horiz-adv-x="1046" d="M152 688l18 109l784 2l-14 -82l-45 -311h-107l41 284z" />
<glyph unicode="&#xad;" horiz-adv-x="731" d="M123 473l16 111l465 2l-16 -111z" />
<glyph unicode="&#xae;" horiz-adv-x="1021" d="M135 1024q19 130 93.5 239.5t185.5 173.5t233 64q120 0 213 -63.5t136.5 -173.5t25.5 -240q-28 -198 -177.5 -336.5t-332.5 -138.5q-122 0 -215.5 63t-137 172.5t-24.5 239.5zM215 1024q-25 -180 60 -287.5t249 -107.5q161 0 276.5 107.5t141.5 287.5q26 179 -59 288 t-246 109q-164 0 -280 -108.5t-142 -288.5zM379 784l67 473h195q69 0 102.5 -29.5t26.5 -86.5q-12 -93 -113 -127l52 -230h-74l-45 224h-111l-30 -224h-70zM487 1071h115q86 0 96 62q3 28 -14.5 45.5t-67.5 17.5h-110z" />
<glyph unicode="&#xaf;" horiz-adv-x="567" d="M137 1346l17 102h516l-15 -102h-518z" />
<glyph unicode="&#xb0;" horiz-adv-x="892" d="M281 1403q20 137 113 224t220 87q124 0 193 -87.5t49 -223.5q-19 -135 -113 -222t-219 -87q-126 0 -194.5 87t-48.5 222zM375 1401q-11 -96 32 -154.5t128 -58.5q87 0 147 58.5t72 154.5q15 95 -28.5 154t-131.5 59q-84 0 -144.5 -59.5t-74.5 -153.5z" />
<glyph unicode="&#xb1;" horiz-adv-x="1044" d="M76 145l16 107l782 2l-14 -107zM174 836l16 108h342l52 367h102l-51 -365h340l-17 -108h-340l-51 -365h-102l51 363h-342z" />
<glyph unicode="&#xb2;" horiz-adv-x="671" d="M104 786l11 62l4 33q10 68 43 123.5t79.5 93.5t100.5 70.5t107.5 63t99 63t77.5 78.5t40 102q11 80 -35 129t-133 49q-92 0 -155.5 -56t-82.5 -147h-80q20 120 109.5 200.5t224.5 80.5q123 0 187 -70t47 -186q-10 -68 -43 -123t-78.5 -92t-99 -69t-106.5 -61.5t-98 -62 t-76.5 -78.5t-39.5 -102l-4 -25h465l-11 -76h-553z" />
<glyph unicode="&#xb3;" horiz-adv-x="751" d="M123 1042h82q-1 -91 49 -142.5t139 -51.5q104 0 175 52.5t83 137.5q13 94 -48.5 145.5t-168.5 53.5h-76l11 74l73 2q92 0 165.5 54t82.5 126q10 67 -37.5 115.5t-142.5 48.5q-81 0 -150.5 -53.5t-83.5 -149.5h-81q18 124 111 200.5t212 76.5q131 0 202 -64t56 -172 q-9 -70 -61 -126.5t-140 -88.5q90 -28 131.5 -90.5t28.5 -149.5q-17 -122 -115.5 -195t-240.5 -71q-125 2 -196.5 75t-59.5 193z" />
<glyph unicode="&#xb4;" horiz-adv-x="526" d="M125 1305l485 194l17 -117l-488 -155z" />
<glyph unicode="&#xb5;" horiz-adv-x="1142" d="M49 -338l203 1423h127l-111 -776q-12 -84 43.5 -144.5t145.5 -60.5q156 0 354 201l111 780h129l-158 -1085h-121l25 168q-118 -94 -194.5 -132.5t-156.5 -39.5q-140 -3 -213 80l-57 -414h-127z" />
<glyph unicode="&#xb6;" horiz-adv-x="1060" d="M174 1030q12 86 50.5 165.5t99.5 144t151.5 103t196.5 38.5h354l-12 -88h-115l-221 -1563h-90l221 1563h-88l-221 -1563h-90l108 778q-185 3 -277.5 125.5t-66.5 296.5z" />
<glyph unicode="&#xb7;" horiz-adv-x="425" d="M135 651l27 191h184l-29 -191h-182z" />
<glyph unicode="&#xb8;" horiz-adv-x="401" d="M-106 -365l34 68q47 -47 117 -47q105 0 117 82q7 44 -25.5 66.5t-107.5 25.5q-19 0 -9 10l93 170h77l-63 -125q83 -6 114.5 -47t24.5 -98q-10 -73 -72 -113.5t-145 -40.5q-94 0 -155 49z" />
<glyph unicode="&#xb9;" horiz-adv-x="581" d="M156 1542l8 64q114 0 157 23t54 81h59l-133 -932h-82l109 764h-172z" />
<glyph unicode="&#xba;" horiz-adv-x="782" d="M190 1153q22 156 114 251t222 95q133 0 197.5 -95t42.5 -251q-21 -152 -111 -246t-227 -94q-134 0 -197 94t-41 246zM291 1159q-18 -125 20 -195.5t129 -70.5q92 0 151 70.5t77 195.5q15 120 -23.5 189t-128.5 69q-92 0 -149.5 -69t-75.5 -189z" />
<glyph unicode="&#xbb;" horiz-adv-x="833" d="M47 150l258 364l-155 381h73l209 -381l-313 -364h-72zM371 150l258 364l-158 381h76l209 -381l-312 -364h-73z" />
<glyph unicode="&#xbc;" horiz-adv-x="1804" d="M125 1329l8 64q114 0 157 23t54 81h59l-133 -932h-82l109 764h-172zM244 -8l921 1270l250 235l-919 -1270zM1020 254l12 84l494 594h82l-84 -600h149l-12 -78h-150l-34 -254h-80l37 254h-414zM1110 332h332l67 481z" />
<glyph unicode="&#xbd;" horiz-adv-x="1748" d="M125 1329l8 64q114 0 157 23t54 81h59l-133 -932h-82l109 764h-172zM244 -8l921 1270l250 235l-919 -1270zM1014 0l10 61l4 33q10 68 43 123.5t79.5 93.5t100.5 70.5t107.5 63t99 63t77.5 78.5t40 102q11 80 -35 129t-133 49q-92 0 -155.5 -55.5t-82.5 -146.5h-79 q20 120 109 200t224 80q123 0 187 -70t47 -186q-10 -68 -43 -123t-78.5 -92t-99 -69t-106.5 -61.5t-98 -62t-76.5 -78.5t-39.5 -102l-4 -24h465l-10 -76h-553z" />
<glyph unicode="&#xbe;" horiz-adv-x="1974" d="M92 827h82q-1 -91 49 -142.5t139 -51.5q104 0 175.5 52.5t83.5 137.5q13 94 -49 145.5t-169 53.5h-75l10 74l74 2q92 0 165 54t82 126q10 67 -37.5 115.5t-142.5 48.5q-81 0 -150 -53.5t-83 -149.5h-82q18 124 111 200.5t212 76.5q131 0 202 -64t56 -172 q-9 -70 -60.5 -126.5t-139.5 -88.5q90 -28 131.5 -90.5t28.5 -149.5q-17 -122 -116 -195t-241 -71q-125 2 -196.5 75t-59.5 193zM414 -8l921 1270l250 235l-919 -1270zM1190 254l12 84l494 594h82l-84 -600h149l-12 -78h-150l-34 -254h-80l37 254h-414zM1280 332h332l67 481 z" />
<glyph unicode="&#xbf;" horiz-adv-x="978" d="M-10 10q10 69 39 127t69 100t87 81t93.5 79t86.5 84.5t69 107t39 136.5h115q-11 -82 -40 -150.5t-68 -116.5t-84 -90.5t-89.5 -80t-82 -76t-64.5 -89t-35 -108.5q-15 -115 51.5 -183.5t192.5 -68.5q101 0 205 61t145 146l112 -45q-78 -128 -204.5 -201t-272.5 -73 q-190 0 -287 98.5t-77 261.5zM469 864l25 195h163l-26 -195h-162z" />
<glyph unicode="&#xc0;" d="M25 0l712 1481h152l291 -1481h-131l-84 438h-600l-213 -438h-127zM418 565h526l-149 785zM584 1804l51 117l430 -195l-37 -77z" />
<glyph unicode="&#xc1;" d="M25 0l712 1481h152l291 -1481h-131l-84 438h-600l-213 -438h-127zM418 565h526l-149 785zM600 1726l485 195l17 -117l-488 -155z" />
<glyph unicode="&#xc2;" d="M25 0l712 1481h152l291 -1481h-131l-84 438h-600l-213 -438h-127zM418 565h526l-149 785zM553 1694l264 213h92l199 -213h-141l-117 129l-166 -129h-131z" />
<glyph unicode="&#xc3;" d="M25 0l712 1481h152l291 -1481h-131l-84 438h-600l-213 -438h-127zM418 565h526l-149 785zM598 1821q41 33 75.5 50t80.5 17q43 0 114 -27.5t113 -27.5q36 0 64 12.5t63 38.5l18 -86q-76 -53 -159 -53q-51 0 -115.5 25.5t-103.5 25.5q-28 0 -56 -10t-38 -16.5t-40 -26.5z " />
<glyph unicode="&#xc4;" d="M25 0l712 1481h152l291 -1481h-131l-84 438h-600l-213 -438h-127zM418 565h526l-149 785zM637 1724l20 158h140l-23 -158h-137zM918 1724l22 158h137l-22 -158h-137z" />
<glyph unicode="&#xc5;" d="M25 0l712 1481h152l291 -1481h-131l-84 438h-600l-213 -438h-127zM418 565h526l-149 785zM670 1823q12 81 77 138.5t144 57.5q80 0 127 -58t35 -142q-12 -87 -77 -146t-145 -59t-126.5 60t-34.5 149zM754 1819q-7 -46 20 -81.5t68 -35.5q43 0 79 35t44 82q6 49 -20 80.5 t-71 31.5q-42 0 -77.5 -32t-42.5 -80z" />
<glyph unicode="&#xc6;" horiz-adv-x="1812" d="M-74 0l985 1481h873l-17 -119h-659l-80 -555h510l-16 -119h-510l-82 -569h686l-17 -119h-827l64 446h-486l-297 -446h-127zM420 565h434l115 811z" />
<glyph unicode="&#xc7;" horiz-adv-x="1329" d="M164 739q51 359 226 560.5t441 201.5q210 0 332.5 -123t116.5 -303l-135 -12q-6 144 -89.5 230.5t-240.5 86.5q-208 0 -338 -162.5t-174 -480.5q-45 -313 40.5 -475t303.5 -162q134 0 241.5 81t158.5 222l129 -18q-40 -164 -184.5 -279.5t-329.5 -125.5l-50 -95 q83 -6 115 -47t25 -98q-10 -73 -72 -113.5t-145 -40.5q-95 0 -156 49l35 68q47 -47 116 -47q105 0 117 82q7 44 -25.5 66.5t-107.5 25.5q-18 0 -8 10l76 142q-250 17 -359 215t-59 542z" />
<glyph unicode="&#xc8;" horiz-adv-x="1200" d="M131 0l211 1481h829l-18 -121h-704l-80 -551h647l-17 -121h-647l-80 -563l729 -2l-18 -123h-852zM510 1804l51 117l430 -195l-37 -77z" />
<glyph unicode="&#xc9;" horiz-adv-x="1200" d="M131 0l211 1481h829l-18 -121h-704l-80 -551h647l-17 -121h-647l-80 -563l729 -2l-18 -123h-852zM524 1726l486 195l16 -117l-487 -155z" />
<glyph unicode="&#xca;" horiz-adv-x="1200" d="M131 0l211 1481h829l-18 -121h-704l-80 -551h647l-17 -121h-647l-80 -563l729 -2l-18 -123h-852zM489 1694l263 213h92l200 -213h-141l-119 129l-163 -129h-132z" />
<glyph unicode="&#xcb;" horiz-adv-x="1200" d="M131 0l211 1481h829l-18 -121h-704l-80 -551h647l-17 -121h-647l-80 -563l729 -2l-18 -123h-852zM561 1724l21 158h139l-23 -158h-137zM842 1724l22 158h137l-22 -158h-137z" />
<glyph unicode="&#xcc;" horiz-adv-x="526" d="M131 0l209 1481h123l-209 -1481h-123zM176 1804l51 117l430 -195l-36 -77z" />
<glyph unicode="&#xcd;" horiz-adv-x="526" d="M131 0l209 1481h123l-209 -1481h-123zM190 1726l486 195l16 -117l-487 -155z" />
<glyph unicode="&#xce;" horiz-adv-x="526" d="M131 0l209 1481h123l-209 -1481h-123zM156 1694l262 213h92l201 -213h-142l-118 129l-164 -129h-131z" />
<glyph unicode="&#xcf;" horiz-adv-x="526" d="M131 0l209 1481h123l-209 -1481h-123zM227 1724l21 158h139l-22 -158h-138zM508 1724l22 158h138l-23 -158h-137z" />
<glyph unicode="&#xd0;" horiz-adv-x="1374" d="M104 686l7 115h184l98 680q1 0 46 -0.5t110.5 -1t116.5 -0.5q375 -3 520.5 -181.5t93.5 -545.5q-54 -383 -262 -567.5t-586 -184.5h-252l99 686h-175zM328 121h118q152 0 268 33.5t206.5 106.5t147.5 193.5t81 290.5q16 101 12 183t-18.5 146t-48 112.5t-76.5 82 t-103.5 54t-129 30t-152.5 9.5h-129l-80 -561h340l-6 -115h-350z" />
<glyph unicode="&#xd1;" horiz-adv-x="1423" d="M131 0l211 1481h113l606 -1243l176 1243h125l-213 -1481h-109l-608 1249l-178 -1249h-123zM637 1821q41 33 75.5 50t80.5 17q43 0 114 -27.5t113 -27.5q36 0 64 12.5t63 38.5l18 -86q-76 -53 -159 -53q-51 0 -116 25.5t-104 25.5q-11 0 -22 -1.5t-19 -3t-18.5 -6 t-15.5 -6.5t-16 -8.5t-13.5 -8t-15 -10t-13.5 -9.5z" />
<glyph unicode="&#xd2;" horiz-adv-x="1427" d="M164 733q52 368 235 568t455 200q269 0 393 -199t72 -565q-52 -362 -232.5 -559.5t-449.5 -197.5q-274 0 -399.5 196t-73.5 557zM303 737q-45 -320 46 -478.5t306 -158.5q439 0 529 637q45 323 -44.5 483t-303.5 160t-351 -161t-182 -482zM623 1804l51 117l430 -195 l-37 -77z" />
<glyph unicode="&#xd3;" horiz-adv-x="1427" d="M164 733q52 368 235 568t455 200q269 0 393 -199t72 -565q-52 -362 -232.5 -559.5t-449.5 -197.5q-274 0 -399.5 196t-73.5 557zM303 737q-45 -320 46 -478.5t306 -158.5q439 0 529 637q45 323 -44.5 483t-303.5 160t-351 -161t-182 -482zM637 1726l485 195l17 -117 l-488 -155z" />
<glyph unicode="&#xd4;" horiz-adv-x="1427" d="M164 733q52 368 235 568t455 200q269 0 393 -199t72 -565q-52 -362 -232.5 -559.5t-449.5 -197.5q-274 0 -399.5 196t-73.5 557zM303 737q-45 -320 46 -478.5t306 -158.5q439 0 529 637q45 323 -44.5 483t-303.5 160t-351 -161t-182 -482zM602 1694l262 213h92l201 -213 h-141l-119 129l-164 -129h-131z" />
<glyph unicode="&#xd5;" horiz-adv-x="1427" d="M164 733q52 368 235 568t455 200q269 0 393 -199t72 -565q-52 -362 -232.5 -559.5t-449.5 -197.5q-274 0 -399.5 196t-73.5 557zM303 737q-45 -320 46 -478.5t306 -158.5q439 0 529 637q45 323 -44.5 483t-303.5 160t-351 -161t-182 -482zM635 1821q41 33 75.5 50 t80.5 17q43 0 114 -27.5t113 -27.5q36 0 64 12.5t63 38.5l18 -86q-76 -53 -159 -53q-51 0 -116 25.5t-104 25.5q-11 0 -22 -1.5t-19 -3t-18.5 -6t-15.5 -6.5t-16 -8.5t-13.5 -8t-15 -10t-13.5 -9.5z" />
<glyph unicode="&#xd6;" horiz-adv-x="1427" d="M164 733q52 368 235 568t455 200q269 0 393 -199t72 -565q-52 -362 -232.5 -559.5t-449.5 -197.5q-274 0 -399.5 196t-73.5 557zM303 737q-45 -320 46 -478.5t306 -158.5q439 0 529 637q45 323 -44.5 483t-303.5 160t-351 -161t-182 -482zM674 1724l20 158h140l-23 -158 h-137zM954 1724l23 158h137l-22 -158h-138z" />
<glyph unicode="&#xd7;" horiz-adv-x="1013" d="M117 420l346 323l-256 324l84 76l256 -322l348 326l63 -76l-350 -328l258 -323l-86 -78l-256 324l-346 -324z" />
<glyph unicode="&#xd8;" horiz-adv-x="1417" d="M-2 55l192 199q-75 186 -32 479q52 368 234 568t454 200q256 0 383 -180l178 184l70 -78l-195 -204q74 -193 31 -486q-50 -361 -232 -559t-452 -198q-263 0 -383 176l-178 -183zM315 373l807 848q-80 159 -295 159q-414 0 -512 -614q-34 -235 0 -393zM350 258 q85 -158 299 -158q206 0 331 148.5t171 453.5q38 239 4 402z" />
<glyph unicode="&#xd9;" horiz-adv-x="1363" d="M201 508l137 973h131l-143 -1004q-26 -187 48.5 -283t246.5 -96q175 0 279 95t130 284l141 1004h125l-141 -998q-36 -251 -171 -377t-380 -126q-249 0 -345.5 130.5t-57.5 397.5zM592 1804l51 117l430 -195l-37 -77z" />
<glyph unicode="&#xda;" horiz-adv-x="1363" d="M201 508l137 973h131l-143 -1004q-26 -187 48.5 -283t246.5 -96q175 0 279 95t130 284l141 1004h125l-141 -998q-36 -251 -171 -377t-380 -126q-249 0 -345.5 130.5t-57.5 397.5zM608 1726l486 195l16 -117l-487 -155z" />
<glyph unicode="&#xdb;" horiz-adv-x="1363" d="M201 508l137 973h131l-143 -1004q-26 -187 48.5 -283t246.5 -96q175 0 279 95t130 284l141 1004h125l-141 -998q-36 -251 -171 -377t-380 -126q-249 0 -345.5 130.5t-57.5 397.5zM571 1694l263 213h92l200 -213h-141l-119 129l-164 -129h-131z" />
<glyph unicode="&#xdc;" horiz-adv-x="1363" d="M201 508l137 973h131l-143 -1004q-26 -187 48.5 -283t246.5 -96q175 0 279 95t130 284l141 1004h125l-141 -998q-36 -251 -171 -377t-380 -126q-249 0 -345.5 130.5t-57.5 397.5zM643 1724l21 158h139l-23 -158h-137zM924 1724l22 158h137l-22 -158h-137z" />
<glyph unicode="&#xdd;" horiz-adv-x="1087" d="M152 1481h137l289 -725l487 725h137l-581 -848l-91 -633h-122l88 635zM463 1731l485 194l17 -117l-488 -155z" />
<glyph unicode="&#xde;" horiz-adv-x="1251" d="M131 0l209 1481h143l-47 -316h330q232 0 355.5 -98.5t95.5 -294.5q-20 -145 -98 -241.5t-191.5 -138.5t-259.5 -42h-346l-50 -350h-141zM338 467h336q351 0 397 307q19 145 -66.5 210t-261.5 65h-323z" />
<glyph unicode="&#xdf;" horiz-adv-x="1140" d="M121 0l133 948h-133l14 101h131q30 197 153 314.5t308 117.5q81 0 138 -23t85.5 -63t38 -87t2.5 -100q-5 -33 -16 -62.5t-22 -50.5t-33.5 -42.5t-37 -34t-46 -30.5t-47 -25.5t-52.5 -26.5q-85 -46 -113 -70t-34 -65t16 -60t94 -45q113 -45 156 -72q162 -103 133 -302 q-24 -162 -137.5 -252t-267.5 -90q-68 0 -137.5 19t-112.5 52l65 94q46 -32 86.5 -47.5t100.5 -15.5q118 0 194.5 60t91.5 167q8 59 -5 102.5t-52 73.5t-71 45.5t-93 38.5q-35 13 -54.5 21.5t-47.5 27t-42 39t-22.5 53.5t-3.5 74q10 72 57.5 121.5t149.5 104.5q7 4 30.5 17 t32 18t28 18t28.5 21.5t23.5 23.5t21.5 28.5t14.5 32t10.5 39.5q9 79 -37.5 124.5t-143.5 45.5q-118 0 -201 -79.5t-104 -229.5l-151 -1069h-119z" />
<glyph unicode="&#xe0;" horiz-adv-x="1050" d="M68 279q25 177 147.5 260t372.5 92l203 6l14 94q17 114 -44 178t-177 64q-101 0 -180 -53.5t-109 -151.5h-119q28 131 143 221t285 90q173 0 259 -92t63 -252l-105 -735h-108l20 199q-137 -219 -387 -219q-147 0 -222.5 80t-55.5 219zM193 289q-13 -96 41.5 -151.5 t158.5 -55.5q112 0 227 82.5t130 179.5l26 197l-168 -4q-205 -4 -300.5 -61.5t-114.5 -186.5zM375 1382l51 117l430 -194l-37 -78z" />
<glyph unicode="&#xe1;" horiz-adv-x="1050" d="M68 279q25 177 147.5 260t372.5 92l203 6l14 94q17 114 -44 178t-177 64q-101 0 -180 -53.5t-109 -151.5h-119q28 131 143 221t285 90q173 0 259 -92t63 -252l-105 -735h-108l20 199q-137 -219 -387 -219q-147 0 -222.5 80t-55.5 219zM193 289q-13 -96 41.5 -151.5 t158.5 -55.5q112 0 227 82.5t130 179.5l26 197l-168 -4q-205 -4 -300.5 -61.5t-114.5 -186.5zM389 1305l485 194l17 -117l-488 -155z" />
<glyph unicode="&#xe2;" horiz-adv-x="1050" d="M68 279q25 177 147.5 260t372.5 92l203 6l14 94q17 114 -44 178t-177 64q-101 0 -180 -53.5t-109 -151.5h-119q28 131 143 221t285 90q173 0 259 -92t63 -252l-105 -735h-108l20 199q-137 -219 -387 -219q-147 0 -222.5 80t-55.5 219zM193 289q-13 -96 41.5 -151.5 t158.5 -55.5q112 0 227 82.5t130 179.5l26 197l-168 -4q-205 -4 -300.5 -61.5t-114.5 -186.5zM354 1272l262 213h93l200 -213h-141l-119 129l-164 -129h-131z" />
<glyph unicode="&#xe3;" horiz-adv-x="1050" d="M68 279q25 177 147.5 260t372.5 92l203 6l14 94q17 114 -44 178t-177 64q-101 0 -180 -53.5t-109 -151.5h-119q28 131 143 221t285 90q173 0 259 -92t63 -252l-105 -735h-108l20 199q-137 -219 -387 -219q-147 0 -222.5 80t-55.5 219zM193 289q-13 -96 41.5 -151.5 t158.5 -55.5q112 0 227 82.5t130 179.5l26 197l-168 -4q-205 -4 -300.5 -61.5t-114.5 -186.5zM387 1399q41 33 75.5 50t80.5 17q43 0 114 -27.5t113 -27.5q36 0 64 12.5t63 38.5l18 -86q-76 -53 -159 -53q-51 0 -115.5 25.5t-103.5 25.5q-28 0 -56 -10t-38 -16.5t-40 -26.5z " />
<glyph unicode="&#xe4;" horiz-adv-x="1050" d="M68 279q25 177 147.5 260t372.5 92l203 6l14 94q17 114 -44 178t-177 64q-101 0 -180 -53.5t-109 -151.5h-119q28 131 143 221t285 90q173 0 259 -92t63 -252l-105 -735h-108l20 199q-137 -219 -387 -219q-147 0 -222.5 80t-55.5 219zM193 289q-13 -96 41.5 -151.5 t158.5 -55.5q112 0 227 82.5t130 179.5l26 197l-168 -4q-205 -4 -300.5 -61.5t-114.5 -186.5zM426 1303l20 157h140l-23 -157h-137zM707 1303l22 157h137l-22 -157h-137z" />
<glyph unicode="&#xe5;" horiz-adv-x="1050" d="M68 279q25 177 147.5 260t372.5 92l203 6l14 94q17 114 -44 178t-177 64q-101 0 -180 -53.5t-109 -151.5h-119q28 131 143 221t285 90q173 0 259 -92t63 -252l-105 -735h-108l20 199q-137 -219 -387 -219q-147 0 -222.5 80t-55.5 219zM193 289q-13 -96 41.5 -151.5 t158.5 -55.5q112 0 227 82.5t130 179.5l26 197l-168 -4q-205 -4 -300.5 -61.5t-114.5 -186.5zM459 1401q12 81 77 138.5t144 57.5q80 0 127 -58t35 -142q-12 -87 -76.5 -146t-144.5 -59t-127 60t-35 149zM543 1397q-7 -46 20 -81.5t68 -35.5q43 0 79 35t44 82 q6 49 -19.5 80.5t-70.5 31.5q-42 0 -78 -32t-43 -80z" />
<glyph unicode="&#xe6;" horiz-adv-x="1769" d="M66 274q22 151 149.5 240t359.5 109l218 16l12 86q17 118 -39.5 185t-181.5 67q-171 0 -316 -189l-96 48q79 118 191 180.5t249 62.5q263 0 301 -215q70 106 170.5 160.5t221.5 54.5q200 0 298.5 -153.5t59.5 -425.5l-774 -2q-14 -101 17 -196.5t102 -156.5t163 -61 q64 0 118.5 16t97.5 47.5t70.5 58.5t62.5 68l77 -53q-75 -112 -193.5 -176.5t-258.5 -64.5q-62 0 -114.5 15.5t-87 37t-65.5 54.5t-47 58t-34 58q-5 10 -13 0q-34 -37 -58.5 -60.5t-69.5 -57.5t-87.5 -54.5t-104 -35.5t-128.5 -15q-147 0 -218.5 78.5t-51.5 215.5zM195 283 q-12 -94 39.5 -149.5t156.5 -51.5q134 6 240 83.5t121 182.5l28 197l-184 -15q-371 -30 -401 -247zM907 594l641 -2q15 103 -11.5 191t-92 141t-156.5 53q-139 0 -247 -105.5t-134 -277.5z" />
<glyph unicode="&#xe7;" horiz-adv-x="1030" d="M102 524q36 247 178 401t343 154q144 0 238 -85t97 -240l-116 -4q-12 109 -73 163t-155 54q-150 0 -255 -120t-134 -319q-28 -202 42.5 -322t221.5 -120q97 0 176 57t115 160h113q-45 -151 -153 -232t-242 -89l-49 -97q83 -6 114.5 -47t24.5 -98q-10 -73 -72 -113.5 t-145 -40.5q-95 0 -156 49l35 68q47 -47 117 -47q104 0 116 82q7 44 -25.5 66.5t-107.5 25.5q-18 0 -8 10l76 142q-179 19 -263.5 165.5t-52.5 376.5z" />
<glyph unicode="&#xe8;" horiz-adv-x="1054" d="M100 520q37 259 174 409t342 150q197 0 286 -137t54 -381l-8 -63h-725q-16 -115 4.5 -205t87 -146.5t172.5 -56.5q104 0 182 52.5t122 152.5h118q-57 -157 -174.5 -236t-263.5 -79q-202 0 -304.5 144t-66.5 396zM242 600h600q15 108 -4.5 190t-80 131.5t-157.5 49.5 q-77 0 -142 -32.5t-108.5 -86t-71 -118t-36.5 -134.5zM387 1382l51 117l430 -194l-37 -78z" />
<glyph unicode="&#xe9;" horiz-adv-x="1054" d="M100 520q37 259 174 409t342 150q197 0 286 -137t54 -381l-8 -63h-725q-16 -115 4.5 -205t87 -146.5t172.5 -56.5q104 0 182 52.5t122 152.5h118q-57 -157 -174.5 -236t-263.5 -79q-202 0 -304.5 144t-66.5 396zM242 600h600q15 108 -4.5 190t-80 131.5t-157.5 49.5 q-77 0 -142 -32.5t-108.5 -86t-71 -118t-36.5 -134.5zM401 1305l486 194l16 -117l-487 -155z" />
<glyph unicode="&#xea;" horiz-adv-x="1054" d="M100 520q37 259 174 409t342 150q197 0 286 -137t54 -381l-8 -63h-725q-16 -115 4.5 -205t87 -146.5t172.5 -56.5q104 0 182 52.5t122 152.5h118q-57 -157 -174.5 -236t-263.5 -79q-202 0 -304.5 144t-66.5 396zM242 600h600q15 108 -4.5 190t-80 131.5t-157.5 49.5 q-77 0 -142 -32.5t-108.5 -86t-71 -118t-36.5 -134.5zM367 1272l262 213h92l201 -213h-142l-118 129l-164 -129h-131z" />
<glyph unicode="&#xeb;" horiz-adv-x="1054" d="M100 520q37 259 174 409t342 150q197 0 286 -137t54 -381l-8 -63h-725q-16 -115 4.5 -205t87 -146.5t172.5 -56.5q104 0 182 52.5t122 152.5h118q-57 -157 -174.5 -236t-263.5 -79q-202 0 -304.5 144t-66.5 396zM242 600h600q15 108 -4.5 190t-80 131.5t-157.5 49.5 q-77 0 -142 -32.5t-108.5 -86t-71 -118t-36.5 -134.5zM438 1303l21 157h139l-23 -157h-137zM719 1303l22 157h138l-23 -157h-137z" />
<glyph unicode="&#xec;" horiz-adv-x="503" d="M100 1382l52 117l430 -194l-37 -78zM115 0l151 1059h125l-151 -1059h-125z" />
<glyph unicode="&#xed;" horiz-adv-x="503" d="M115 0l151 1059h125l-151 -1059h-125zM115 1305l485 194l16 -117l-487 -155z" />
<glyph unicode="&#xee;" horiz-adv-x="503" d="M80 1272l262 213h92l201 -213h-141l-119 129l-164 -129h-131zM115 0l151 1059h125l-151 -1059h-125z" />
<glyph unicode="&#xef;" horiz-adv-x="503" d="M115 0l151 1059h125l-151 -1059h-125zM152 1303l20 157h139l-22 -157h-137zM432 1303l23 157h137l-23 -157h-137z" />
<glyph unicode="&#xf0;" horiz-adv-x="1130" d="M98 504q34 233 182 383.5t343 150.5q164 0 251 -114q-57 210 -233 352l-332 -186l-30 69l299 166q-78 53 -205 111l96 67q122 -51 219 -117l217 119l25 -71l-176 -99q348 -283 272 -817q-34 -241 -181 -389.5t-362 -148.5q-204 0 -310.5 147t-74.5 377zM227 508 q-26 -183 52.5 -303.5t226.5 -120.5q146 0 256 120t135 304q26 182 -51 305t-221 123q-147 0 -259.5 -122.5t-138.5 -305.5z" />
<glyph unicode="&#xf1;" horiz-adv-x="1134" d="M106 0l150 1059h119l-21 -154q53 77 142 124.5t202 47.5q152 0 235 -100t56 -287l-98 -690h-125l98 682q20 134 -36 207.5t-169 73.5q-126 0 -218.5 -61.5t-106.5 -176.5l-105 -725h-123zM453 1399q41 34 75 50.5t80 16.5q43 0 114.5 -27.5t113.5 -27.5q36 0 64 12.5 t63 38.5l18 -86q-76 -53 -160 -53q-51 0 -115.5 25.5t-103.5 25.5q-11 0 -22 -1.5t-19 -3t-18.5 -6t-15.5 -6.5t-16 -8.5t-13.5 -8t-15 -10t-13.5 -9.5z" />
<glyph unicode="&#xf2;" horiz-adv-x="1081" d="M102 522q37 250 177 403.5t344 153.5q202 0 296 -152.5t60 -400.5q-34 -247 -172 -396.5t-344 -149.5t-300.5 148t-60.5 394zM229 528q-27 -199 36.5 -319.5t217.5 -120.5q153 0 247.5 119.5t123.5 320.5t-33.5 321t-214.5 120q-153 0 -250.5 -120.5t-126.5 -320.5z M393 1382l51 117l430 -194l-36 -78z" />
<glyph unicode="&#xf3;" horiz-adv-x="1081" d="M102 522q37 250 177 403.5t344 153.5q202 0 296 -152.5t60 -400.5q-34 -247 -172 -396.5t-344 -149.5t-300.5 148t-60.5 394zM229 528q-27 -199 36.5 -319.5t217.5 -120.5q153 0 247.5 119.5t123.5 320.5t-33.5 321t-214.5 120q-153 0 -250.5 -120.5t-126.5 -320.5z M410 1305l485 194l16 -117l-487 -155z" />
<glyph unicode="&#xf4;" horiz-adv-x="1081" d="M102 522q37 250 177 403.5t344 153.5q202 0 296 -152.5t60 -400.5q-34 -247 -172 -396.5t-344 -149.5t-300.5 148t-60.5 394zM229 528q-27 -199 36.5 -319.5t217.5 -120.5q153 0 247.5 119.5t123.5 320.5t-33.5 321t-214.5 120q-153 0 -250.5 -120.5t-126.5 -320.5z M373 1272l262 213h92l201 -213h-142l-118 129l-164 -129h-131z" />
<glyph unicode="&#xf5;" horiz-adv-x="1081" d="M102 522q37 250 177 403.5t344 153.5q202 0 296 -152.5t60 -400.5q-34 -247 -172 -396.5t-344 -149.5t-300.5 148t-60.5 394zM229 528q-27 -199 36.5 -319.5t217.5 -120.5q153 0 247.5 119.5t123.5 320.5t-33.5 321t-214.5 120q-153 0 -250.5 -120.5t-126.5 -320.5z M408 1399q41 34 75 50.5t80 16.5q43 0 114.5 -27.5t113.5 -27.5q36 0 64 12.5t63 38.5l18 -86q-76 -53 -160 -53q-51 0 -115.5 25.5t-103.5 25.5q-11 0 -22 -1.5t-19 -3t-18.5 -6t-15.5 -6.5t-16 -8.5t-13.5 -8t-15 -10t-13.5 -9.5z" />
<glyph unicode="&#xf6;" horiz-adv-x="1081" d="M102 522q37 250 177 403.5t344 153.5q202 0 296 -152.5t60 -400.5q-34 -247 -172 -396.5t-344 -149.5t-300.5 148t-60.5 394zM229 528q-27 -199 36.5 -319.5t217.5 -120.5q153 0 247.5 119.5t123.5 320.5t-33.5 321t-214.5 120q-153 0 -250.5 -120.5t-126.5 -320.5z M444 1303l21 157h139l-22 -157h-138zM725 1303l23 157h137l-23 -157h-137z" />
<glyph unicode="&#xf7;" horiz-adv-x="1044" d="M152 688l16 109l784 2l-16 -109zM397 313l29 189h184l-24 -189h-189zM496 987l26 191h187l-29 -191h-184z" />
<glyph unicode="&#xf8;" horiz-adv-x="1044" d="M-31 59l111 107q-70 137 -39 356q36 251 175 404t345 153q203 0 297 -153l143 139l64 -68l-166 -163q40 -129 16 -308q-34 -247 -172 -396.5t-342 -149.5q-173 0 -268 106l-98 -96zM166 528q-22 -160 14 -264l584 570q-61 135 -221 135q-152 0 -250 -121t-127 -320z M225 176q69 -88 195 -88q153 0 248.5 120t122.5 320q15 118 4 205z" />
<glyph unicode="&#xf9;" horiz-adv-x="1128" d="M145 350l103 713h125l-103 -705q-10 -74 7 -128.5t54 -83.5t79 -42.5t88 -13.5q112 0 202 73.5t109 209.5l100 690h123l-151 -1061h-103l15 199q-39 -103 -130.5 -162t-197.5 -57q-66 1 -125 20.5t-109.5 60.5t-74.5 115t-11 172zM412 1382l51 117l430 -194l-37 -78z" />
<glyph unicode="&#xfa;" horiz-adv-x="1128" d="M145 350l103 713h125l-103 -705q-10 -74 7 -128.5t54 -83.5t79 -42.5t88 -13.5q112 0 202 73.5t109 209.5l100 690h123l-151 -1061h-103l15 199q-39 -103 -130.5 -162t-197.5 -57q-66 1 -125 20.5t-109.5 60.5t-74.5 115t-11 172zM426 1305l485 194l17 -117l-488 -155z " />
<glyph unicode="&#xfb;" horiz-adv-x="1128" d="M145 350l103 713h125l-103 -705q-10 -74 7 -128.5t54 -83.5t79 -42.5t88 -13.5q112 0 202 73.5t109 209.5l100 690h123l-151 -1061h-103l15 199q-39 -103 -130.5 -162t-197.5 -57q-66 1 -125 20.5t-109.5 60.5t-74.5 115t-11 172zM391 1272l262 213h92l201 -213h-141 l-119 129l-164 -129h-131z" />
<glyph unicode="&#xfc;" horiz-adv-x="1128" d="M145 350l103 713h125l-103 -705q-10 -74 7 -128.5t54 -83.5t79 -42.5t88 -13.5q112 0 202 73.5t109 209.5l100 690h123l-151 -1061h-103l15 199q-39 -103 -130.5 -162t-197.5 -57q-66 1 -125 20.5t-109.5 60.5t-74.5 115t-11 172zM463 1303l20 157h140l-23 -157h-137z M743 1303l23 157h137l-22 -157h-138z" />
<glyph unicode="&#xfd;" horiz-adv-x="1007" d="M-20 -317l12 86h102q91 -3 140 30.5t79 91.5l60 123l-238 1045h129l193 -887l440 887h121l-590 -1180q-62 -118 -139 -167.5t-178 -49.5q-46 0 -79 5t-42 11zM377 1305l485 194l17 -117l-488 -155z" />
<glyph unicode="&#xfe;" horiz-adv-x="1140" d="M59 -330l258 1811h121l-80 -574q58 63 96 92q108 80 244 80q183 0 280 -137.5t60 -394.5q-36 -261 -177 -414t-337 -153q-156 0 -256 100q-14 15 -19.5 12t-8.5 -26l-56 -396h-125zM262 221q113 -139 250 -139q150 0 258.5 121t140.5 338q29 217 -47 326.5t-215 109.5 q-118 0 -210 -80t-105 -170z" />
<glyph unicode="&#xff;" horiz-adv-x="1007" d="M-20 -317l12 86h102q91 -3 140 30.5t79 91.5l60 123l-238 1045h129l193 -887l440 887h121l-590 -1180q-62 -118 -139 -167.5t-178 -49.5q-46 0 -79 5t-42 11zM414 1303l20 157h139l-22 -157h-137zM694 1303l23 157h137l-23 -157h-137z" />
<glyph unicode="&#x152;" horiz-adv-x="2142" d="M164 733q54 369 237 568.5t459 199.5q301 0 397 -258l54 238h803l-17 -119h-692l-78 -555h524l-16 -119h-524l-82 -569h717l-17 -119h-831l16 238q-171 -258 -475 -258q-274 0 -400.5 196.5t-74.5 556.5zM313 737q-90 -639 344 -639q213 0 338.5 157t171.5 482 q47 326 -35 485.5t-294 159.5q-434 0 -525 -645z" />
<glyph unicode="&#x153;" horiz-adv-x="1902" d="M102 522q37 249 187.5 403t357.5 154q129 0 218.5 -65.5t129.5 -182.5q12 -26 29 0q70 115 178.5 181.5t231.5 66.5q209 0 304.5 -153.5t57.5 -425.5h-772q-25 -171 59.5 -292.5t225.5 -121.5q204 0 342 188l80 -53q-89 -124 -198.5 -182.5t-248.5 -58.5 q-126 0 -216.5 61.5t-133.5 173.5q-3 12 -7.5 15.5t-11 -1.5t-16.5 -20q-73 -109 -179 -169t-231 -60q-210 0 -315.5 149t-71.5 393zM231 526q-28 -201 47.5 -320.5t229.5 -119.5q153 0 259.5 118.5t135.5 321.5q28 204 -45.5 325.5t-224.5 121.5q-154 0 -263.5 -121.5 t-138.5 -325.5zM1042 594l644 -2q22 160 -50.5 271.5t-210.5 111.5q-143 0 -251.5 -107t-131.5 -274z" />
<glyph unicode="&#x178;" horiz-adv-x="1087" d="M152 1481h137l289 -725l487 725h137l-581 -848l-91 -633h-122l88 635zM500 1726l20 158h139l-22 -158h-137zM780 1726l23 158h137l-22 -158h-138z" />
<glyph unicode="&#x2c6;" horiz-adv-x="567" d="M111 1272l262 213h92l201 -213h-142l-118 129l-164 -129h-131z" />
<glyph unicode="&#x2dc;" horiz-adv-x="589" d="M152 1399q41 34 75 50.5t80 16.5q43 0 114.5 -27.5t113.5 -27.5q36 0 64 12.5t63 38.5l18 -86q-76 -53 -160 -53q-51 0 -115.5 25.5t-103.5 25.5q-11 0 -22 -1.5t-19 -3t-18.5 -6t-15.5 -6.5t-16 -8.5t-13.5 -8t-15 -10t-13.5 -9.5z" />
<glyph unicode="&#x2000;" horiz-adv-x="1009" />
<glyph unicode="&#x2001;" horiz-adv-x="2019" />
<glyph unicode="&#x2002;" horiz-adv-x="1009" />
<glyph unicode="&#x2003;" horiz-adv-x="2019" />
<glyph unicode="&#x2004;" horiz-adv-x="673" />
<glyph unicode="&#x2005;" horiz-adv-x="504" />
<glyph unicode="&#x2006;" horiz-adv-x="336" />
<glyph unicode="&#x2007;" horiz-adv-x="336" />
<glyph unicode="&#x2008;" horiz-adv-x="252" />
<glyph unicode="&#x2009;" horiz-adv-x="403" />
<glyph unicode="&#x200a;" horiz-adv-x="112" />
<glyph unicode="&#x2010;" horiz-adv-x="731" d="M123 473l16 111l465 2l-16 -111z" />
<glyph unicode="&#x2011;" horiz-adv-x="731" d="M123 473l16 111l465 2l-16 -111z" />
<glyph unicode="&#x2012;" horiz-adv-x="731" d="M123 473l16 111l465 2l-16 -111z" />
<glyph unicode="&#x2013;" horiz-adv-x="1048" d="M121 459l16 112l785 2l-17 -112z" />
<glyph unicode="&#x2014;" horiz-adv-x="1646" d="M119 459l18 112l1383 2l-17 -112z" />
<glyph unicode="&#x2018;" horiz-adv-x="460" d="M141 1114l11 166l167 266h76l-121 -239l76 -2l-12 -191h-197z" />
<glyph unicode="&#x2019;" horiz-adv-x="397" d="M190 1049l117 239l-78 2l9 191h198l-6 -166l-164 -266h-76z" />
<glyph unicode="&#x201a;" horiz-adv-x="446" d="M-23 -240l138 238l-76 2l27 193h194l-22 -164l-187 -269h-74z" />
<glyph unicode="&#x201c;" horiz-adv-x="778" d="M297 1049l8 165l166 267h76l-119 -240l61 -2l148 242h76l-119 -240l80 -2l-8 -190h-369z" />
<glyph unicode="&#x201d;" horiz-adv-x="722" d="M190 1049l117 239l-78 2l9 191h198l-6 -166l-164 -266h-76zM514 1049l121 239l-80 2l8 191h199l-8 -166l-164 -266h-76z" />
<glyph unicode="&#x201e;" horiz-adv-x="780" d="M-23 -240l138 238l-76 2l27 193h194l-22 -164l-187 -269h-74zM311 -240l138 238l-76 2l26 193h195l-23 -164l-186 -269h-74z" />
<glyph unicode="&#x2022;" horiz-adv-x="610" d="M166 754q0 71 49 120.5t119 49.5t120 -50t50 -120t-50 -120t-120 -50t-119 49.5t-49 120.5z" />
<glyph unicode="&#x2026;" horiz-adv-x="1427" d="M53 0l29 197h162l-29 -197h-162zM563 0l29 197h162l-29 -197h-162zM1073 0l29 197h162l-29 -197h-162z" />
<glyph unicode="&#x202f;" horiz-adv-x="403" />
<glyph unicode="&#x2039;" horiz-adv-x="509" d="M70 514l317 381h76l-266 -381l157 -364h-75z" />
<glyph unicode="&#x203a;" horiz-adv-x="509" d="M49 150l258 364l-157 381h75l209 -381l-315 -364h-70z" />
<glyph unicode="&#x205f;" horiz-adv-x="504" />
<glyph unicode="&#x20ac;" horiz-adv-x="1095" d="M-31 535l13 96h163q11 94 13 108q11 75 20 119h-162l13 94h176q78 262 240 405.5t382 143.5q181 0 306 -125l-101 -94q-95 98 -213 98q-168 0 -286 -107.5t-181 -320.5l406 2l-15 -96h-415q-19 -93 -23 -121q-3 -16 -5 -34t-4 -39t-3 -33l418 2l-13 -96l-407 -2 q2 -213 93.5 -323t268.5 -110q123 0 248 91l57 -95q-157 -118 -337 -118q-227 0 -351 145t-127 410h-174z" />
<glyph unicode="&#x2122;" horiz-adv-x="1769" d="M61 848l11 78h633l-11 -78h-268l-121 -848h-78l121 848h-287zM772 0l131 926h101l176 -822l413 822h99l-129 -926h-84l110 770l-381 -770h-86l-161 762l-109 -762h-80z" />
<glyph unicode="&#x25fc;" horiz-adv-x="1054" d="M0 0v1055h1055v-1055h-1055z" />
</font>
</defs>
</svg>
